{
.appVersion = "3428";
.formatVersion = 3;
customParameters = (
{
name = glyphOrder;
value = (
A,
B,
C,
D,
E,
F,
G,
H,
I,
J,
K,
L,
M,
N,
O,
P,
Q,
R,
S,
T,
U,
V,
W,
X,
Y,
Z,
J.ss01,
a,
b,
c,
d,
e,
f,
g,
h,
i,
j,
k,
l,
m,
n,
o,
p,
q,
r,
s,
t,
u,
v,
w,
x,
y,
z,
j.ss01,
zero,
one,
two,
three,
four,
five,
six,
seven,
eight,
nine,
space,
period,
comma,
colon,
semicolon,
ellipsis,
exclam,
question,
periodcentered,
bullet,
asterisk,
numbersign,
slash,
backslash,
hyphen,
softhyphen,
endash,
emdash,
underscore,
parenleft,
parenright,
braceleft,
braceright,
bracketleft,
bracketright,
quotesinglbase,
quotedblbase,
quotedblleft,
quotedblright,
quoteleft,
quoteright,
quotedbl,
quotesingle,
at,
ampersand,
copyright,
registered,
trademark,
degree,
bar,
dollar,
euro,
sterling,
plus,
minus,
multiply,
equal,
percent
);
},
{
name = "Use Typo Metrics";
value = 1;
}
);
date = "2025-04-15 10:57:34 +0000";
familyName = "BBH Display Bogle";
featurePrefixes = (
{
automatic = 1;
code = "languagesystem DFLT dflt;
";
name = Languagesystems;
}
);
features = (
{
automatic = 1;
code = "feature ss01;
";
tag = aalt;
},
{
automatic = 1;
code = "sub J by J.ss01;
sub j by j.ss01;
";
labels = (
{
language = dflt;
value = "alt J";
}
);
tag = ss01;
}
);
fontMaster = (
{
customParameters = (
{
name = typoAscender;
value = 950;
},
{
name = typoDescender;
value = -250;
},
{
name = typoLineGap;
value = 0;
},
{
name = winAscent;
value = 1016;
},
{
name = winDescent;
value = 216;
},
{
name = hheaAscender;
value = 950;
},
{
name = hheaDescender;
value = -250;
},
{
name = hheaLineGap;
value = 0;
}
);
id = "39DC058D-615C-44EE-9158-2D05AB2D1C50";
metricValues = (
{
over = 16;
pos = 800;
},
{
over = 16;
pos = 700;
},
{
over = 16;
pos = 500;
},
{
over = -16;
},
{
over = -16;
pos = -200;
},
{
}
);
name = Bogle;
stemValues = (
148,
140,
145,
138
);
}
);
glyphs = (
{
glyphname = A;
kernLeft = A;
kernRight = A;
lastChange = "2025-11-14 09:03:11 +0000";
layers = (
{
background = {
guides = (
{
pos = (233,338);
}
);
shapes = (
{
closed = 1;
nodes = (
(184,0,l),
(222,338,l),
(228,481,l),
(246,481,l),
(251,338,l),
(287,0,l),
(432,0,l),
(326,700,l),
(143,700,l),
(38,0,l)
);
},
{
closed = 1;
nodes = (
(326,96,l),
(326,235,l),
(130,235,l),
(130,96,l)
);
}
);
};
guides = (
{
angle = 180;
pos = (199,338);
}
);
layerId = "39DC058D-615C-44EE-9158-2D05AB2D1C50";
shapes = (
{
closed = 1;
nodes = (
(150,0,l),
(188,338,l),
(194,481,l),
(212,481,l),
(217,338,l),
(253,0,l),
(398,0,l),
(292,700,l),
(109,700,l),
(4,0,l)
);
},
{
closed = 1;
nodes = (
(292,96,l),
(292,235,l),
(96,235,l),
(96,96,l)
);
}
);
width = 402;
}
);
unicode = 65;
},
{
glyphname = B;
kernLeft = H;
kernRight = B;
lastChange = "2025-11-14 09:03:11 +0000";
layers = (
{
background = {
guides = (
{
pos = (550,-26);
}
);
shapes = (
{
closed = 1;
nodes = (
(229,0,ls),
(362,0,o),
(432,62,o),
(432,181,cs),
(432,215,ls),
(432,287,o),
(397,329,o),
(322,343,c),
(322,359,l),
(392,375,o),
(428,420,o),
(428,486,cs),
(428,520,ls),
(428,639,o),
(358,700,o),
(225,700,cs),
(38,700,l),
(38,0,l)
);
},
{
closed = 1;
nodes = (
(183,290,l),
(215,290,ls),
(260,290,o),
(285,269,o),
(285,232,cs),
(285,192,ls),
(285,155,o),
(260,135,o),
(215,135,cs),
(183,135,l)
);
},
{
closed = 1;
nodes = (
(183,564,l),
(211,564,ls),
(256,564,o),
(281,544,o),
(281,507,cs),
(281,474,ls),
(281,437,o),
(256,416,o),
(211,416,cs),
(183,416,l)
);
}
);
};
guides = (
{
pos = (550,-26);
}
);
layerId = "39DC058D-615C-44EE-9158-2D05AB2D1C50";
shapes = (
{
closed = 1;
nodes = (
(229,0,ls),
(362,0,o),
(432,62,o),
(432,181,cs),
(432,215,ls),
(432,287,o),
(397,329,o),
(322,343,c),
(322,359,l),
(392,375,o),
(428,420,o),
(428,486,cs),
(428,520,ls),
(428,639,o),
(358,700,o),
(225,700,cs),
(38,700,l),
(38,0,l)
);
},
{
closed = 1;
nodes = (
(183,290,l),
(215,290,ls),
(260,290,o),
(285,269,o),
(285,232,cs),
(285,192,ls),
(285,155,o),
(260,135,o),
(215,135,cs),
(183,135,l)
);
},
{
closed = 1;
nodes = (
(183,564,l),
(211,564,ls),
(256,564,o),
(281,544,o),
(281,507,cs),
(281,474,ls),
(281,437,o),
(256,416,o),
(211,416,cs),
(183,416,l)
);
}
);
width = 447;
}
);
unicode = 66;
},
{
glyphname = C;
kernLeft = O;
kernRight = C;
lastChange = "2025-11-14 09:03:11 +0000";
layers = (
{
background = {
shapes = (
{
closed = 1;
nodes = (
(351,-16,o),
(432,83,o),
(432,223,cs),
(432,287,l),
(284,287,l),
(284,210,ls),
(284,153,o),
(268,124,o),
(235,124,cs),
(202,124,o),
(186,153,o),
(186,210,cs),
(186,490,ls),
(186,547,o),
(202,576,o),
(235,576,cs),
(268,576,o),
(284,547,o),
(284,490,cs),
(284,413,l),
(432,413,l),
(432,478,ls),
(432,618,o),
(351,716,o),
(235,716,cs),
(119,716,o),
(38,618,o),
(38,478,cs),
(38,223,ls),
(38,83,o),
(119,-16,o),
(235,-16,cs)
);
}
);
};
layerId = "39DC058D-615C-44EE-9158-2D05AB2D1C50";
shapes = (
{
closed = 1;
nodes = (
(335,-16,o),
(416,83,o),
(416,223,cs),
(416,287,l),
(268,287,l),
(268,210,ls),
(268,153,o),
(252,124,o),
(219,124,cs),
(186,124,o),
(170,153,o),
(170,210,cs),
(170,490,ls),
(170,547,o),
(186,576,o),
(219,576,cs),
(252,576,o),
(268,547,o),
(268,490,cs),
(268,413,l),
(416,413,l),
(416,478,ls),
(416,618,o),
(335,716,o),
(219,716,cs),
(103,716,o),
(22,618,o),
(22,478,cs),
(22,223,ls),
(22,83,o),
(103,-16,o),
(219,-16,cs)
);
}
);
width = 435;
}
);
unicode = 67;
},
{
glyphname = D;
kernLeft = H;
kernRight = D;
lastChange = "2025-11-14 09:03:11 +0000";
layers = (
{
background = {
shapes = (
{
closed = 1;
nodes = (
(256,0,ls),
(365,0,o),
(434,84,o),
(434,219,cs),
(434,482,ls),
(434,616,o),
(365,700,o),
(256,700,cs),
(38,700,l),
(38,0,l)
);
},
{
closed = 1;
nodes = (
(181,562,l),
(236,562,ls),
(269,562,o),
(286,533,o),
(286,476,cs),
(286,224,ls),
(286,167,o),
(269,138,o),
(236,138,cs),
(181,138,l)
);
}
);
};
layerId = "39DC058D-615C-44EE-9158-2D05AB2D1C50";
shapes = (
{
closed = 1;
nodes = (
(256,0,ls),
(365,0,o),
(434,84,o),
(434,219,cs),
(434,482,ls),
(434,616,o),
(365,700,o),
(256,700,cs),
(38,700,l),
(38,0,l)
);
},
{
closed = 1;
nodes = (
(181,562,l),
(236,562,ls),
(269,562,o),
(286,533,o),
(286,476,cs),
(286,224,ls),
(286,167,o),
(269,138,o),
(236,138,cs),
(181,138,l)
);
}
);
width = 457;
}
);
unicode = 68;
},
{
glyphname = E;
kernLeft = H;
kernRight = E;
lastChange = "2025-11-14 09:03:11 +0000";
layers = (
{
background = {
shapes = (
{
closed = 1;
nodes = (
(184,0,l),
(184,700,l),
(38,700,l),
(38,0,l)
);
},
{
closed = 1;
nodes = (
(432,0,l),
(432,138,l),
(144,138,l),
(144,0,l)
);
},
{
closed = 1;
nodes = (
(371,281,l),
(371,420,l),
(131,420,l),
(131,281,l)
);
},
{
closed = 1;
nodes = (
(432,562,l),
(432,700,l),
(144,700,l),
(144,562,l)
);
}
);
};
layerId = "39DC058D-615C-44EE-9158-2D05AB2D1C50";
shapes = (
{
closed = 1;
nodes = (
(184,0,l),
(184,700,l),
(38,700,l),
(38,0,l)
);
},
{
closed = 1;
nodes = (
(432,0,l),
(432,138,l),
(144,138,l),
(144,0,l)
);
},
{
closed = 1;
nodes = (
(371,284,l),
(371,423,l),
(131,423,l),
(131,284,l)
);
},
{
closed = 1;
nodes = (
(432,562,l),
(432,700,l),
(144,700,l),
(144,562,l)
);
}
);
width = 447;
}
);
unicode = 69;
},
{
glyphname = F;
kernLeft = H;
kernRight = F;
lastChange = "2025-11-14 09:03:11 +0000";
layers = (
{
layerId = "39DC058D-615C-44EE-9158-2D05AB2D1C50";
shapes = (
{
closed = 1;
nodes = (
(184,0,l),
(184,271,l),
(371,271,l),
(371,410,l),
(184,410,l),
(184,562,l),
(432,562,l),
(432,700,l),
(38,700,l),
(38,0,l)
);
}
);
width = 437;
}
);
unicode = 70;
},
{
glyphname = G;
kernLeft = O;
kernRight = G;
lastChange = "2025-11-14 09:03:11 +0000";
layers = (
{
background = {
shapes = (
{
closed = 1;
nodes = (
(258,-16,o),
(293,16,o),
(304,74,c),
(321,74,l),
(318,0,l),
(432,0,l),
(432,372,l),
(224,372,l),
(224,248,l),
(329,248,l),
(284,293,l),
(284,206,ls),
(284,149,o),
(267,120,o),
(234,120,cs),
(201,120,o),
(184,149,o),
(184,206,cs),
(184,494,ls),
(184,551,o),
(201,580,o),
(234,580,cs),
(267,580,o),
(284,551,o),
(284,494,cs),
(284,428,l),
(432,428,l),
(432,478,ls),
(432,618,o),
(351,716,o),
(235,716,cs),
(119,716,o),
(38,618,o),
(38,478,cs),
(38,223,ls),
(38,44,o),
(109,-16,o),
(195,-16,cs)
);
}
);
};
layerId = "39DC058D-615C-44EE-9158-2D05AB2D1C50";
shapes = (
{
closed = 1;
nodes = (
(243,-16,o),
(278,16,o),
(289,74,c),
(306,74,l),
(303,0,l),
(417,0,l),
(417,372,l),
(209,372,l),
(209,248,l),
(314,248,l),
(269,293,l),
(269,206,ls),
(269,149,o),
(252,120,o),
(219,120,cs),
(186,120,o),
(169,149,o),
(169,206,cs),
(169,494,ls),
(169,551,o),
(186,580,o),
(219,580,cs),
(252,580,o),
(269,551,o),
(269,494,cs),
(269,428,l),
(417,428,l),
(417,478,ls),
(417,618,o),
(336,716,o),
(220,716,cs),
(104,716,o),
(23,618,o),
(23,478,cs),
(23,223,ls),
(23,44,o),
(94,-16,o),
(180,-16,cs)
);
}
);
width = 448;
}
);
unicode = 71;
},
{
glyphname = H;
kernLeft = H;
kernRight = H;
lastChange = "2025-11-14 09:03:11 +0000";
layers = (
{
background = {
shapes = (
{
closed = 1;
nodes = (
(432,0,l),
(432,700,l),
(286,700,l),
(286,0,l)
);
},
{
closed = 1;
nodes = (
(183,0,l),
(183,700,l),
(38,700,l),
(38,0,l)
);
},
{
closed = 1;
nodes = (
(361,298,l),
(361,436,l),
(135,436,l),
(135,298,l)
);
}
);
};
layerId = "39DC058D-615C-44EE-9158-2D05AB2D1C50";
shapes = (
{
closed = 1;
nodes = (
(432,0,l),
(432,700,l),
(286,700,l),
(286,0,l)
);
},
{
closed = 1;
nodes = (
(183,0,l),
(183,700,l),
(38,700,l),
(38,0,l)
);
},
{
closed = 1;
nodes = (
(361,298,l),
(361,436,l),
(135,436,l),
(135,298,l)
);
}
);
width = 470;
}
);
unicode = 72;
},
{
glyphname = I;
kernLeft = I;
kernRight = I;
lastChange = "2025-11-14 09:03:11 +0000";
layers = (
{
background = {
shapes = (
{
closed = 1;
nodes = (
(308,0,l),
(308,700,l),
(163,700,l),
(163,0,l)
);
},
{
closed = 1;
nodes = (
(432,562,l),
(432,700,l),
(38,700,l),
(38,562,l)
);
},
{
closed = 1;
nodes = (
(432,0,l),
(432,138,l),
(38,138,l),
(38,0,l)
);
}
);
};
layerId = "39DC058D-615C-44EE-9158-2D05AB2D1C50";
shapes = (
{
closed = 1;
nodes = (
(285,0,l),
(285,700,l),
(140,700,l),
(140,0,l)
);
},
{
closed = 1;
nodes = (
(409,0,l),
(409,138,l),
(15,138,l),
(15,0,l)
);
},
{
closed = 1;
nodes = (
(409,562,l),
(409,700,l),
(15,700,l),
(15,562,l)
);
}
);
width = 424;
}
);
unicode = 73;
},
{
glyphname = J;
kernLeft = J;
kernRight = J;
lastChange = "2025-11-14 09:03:11 +0000";
layers = (
{
layerId = "39DC058D-615C-44EE-9158-2D05AB2D1C50";
shapes = (
{
closed = 1;
nodes = (
(398,562,l),
(398,700,l),
(44,700,l),
(44,562,l)
);
},
{
pos = (1,0);
ref = J.ss01;
}
);
width = 433;
}
);
unicode = 74;
},
{
glyphname = K;
kernLeft = H;
kernRight = K;
lastChange = "2025-11-14 09:03:11 +0000";
layers = (
{
background = {
shapes = (
{
closed = 1;
nodes = (
(233,341,l),
(254,363,l),
(422,700,l),
(265,700,l),
(139,420,l),
(129,133,l)
);
},
{
closed = 1;
nodes = (
(183,0,l),
(183,700,l),
(38,700,l),
(38,0,l)
);
},
{
closed = 1;
nodes = (
(432,0,l),
(284,465,l),
(168,370,l),
(264,0,l)
);
}
);
};
layerId = "39DC058D-615C-44EE-9158-2D05AB2D1C50";
shapes = (
{
closed = 1;
nodes = (
(233,341,l),
(254,363,l),
(422,700,l),
(265,700,l),
(139,420,l),
(129,133,l)
);
},
{
closed = 1;
nodes = (
(183,0,l),
(183,700,l),
(38,700,l),
(38,0,l)
);
},
{
closed = 1;
nodes = (
(432,0,l),
(284,465,l),
(168,370,l),
(264,0,l)
);
}
);
width = 422;
}
);
unicode = 75;
},
{
glyphname = L;
kernLeft = H;
kernRight = L;
lastChange = "2025-11-14 09:03:11 +0000";
layers = (
{
background = {
shapes = (
{
closed = 1;
nodes = (
(432,0,l),
(432,138,l),
(184,138,l),
(184,700,l),
(38,700,l),
(38,0,l)
);
}
);
};
layerId = "39DC058D-615C-44EE-9158-2D05AB2D1C50";
shapes = (
{
closed = 1;
nodes = (
(432,0,l),
(432,138,l),
(184,138,l),
(184,700,l),
(38,700,l),
(38,0,l)
);
}
);
width = 435;
}
);
unicode = 76;
},
{
glyphname = M;
kernLeft = H;
kernRight = H;
lastChange = "2025-11-14 09:03:11 +0000";
layers = (
{
background = {
guides = (
{
angle = 106.675;
pos = (235,93);
}
);
shapes = (
{
closed = 1;
nodes = (
(163,0,l),
(163,595,l),
(137,634,l),
(197,125,l),
(272,125,l),
(334,645,l),
(307,587,l),
(307,0,l),
(432,0,l),
(432,700,l),
(271,700,l),
(213,215,l),
(257,215,l),
(200,700,l),
(38,700,l),
(38,0,l)
);
}
);
};
guides = (
{
angle = 106.675;
pos = (235,93);
}
);
layerId = "39DC058D-615C-44EE-9158-2D05AB2D1C50";
shapes = (
{
closed = 1;
nodes = (
(163,0,l),
(163,595,l),
(137,634,l),
(197,125,l),
(272,125,l),
(334,645,l),
(307,587,l),
(307,0,l),
(432,0,l),
(432,700,l),
(271,700,l),
(213,215,l),
(257,215,l),
(200,700,l),
(38,700,l),
(38,0,l)
);
}
);
width = 470;
}
);
unicode = 77;
},
{
glyphname = N;
kernLeft = H;
kernRight = H;
lastChange = "2025-11-14 09:03:11 +0000";
layers = (
{
background = {
shapes = (
{
closed = 1;
nodes = (
(335,199,l),
(183,700,l),
(135,501,l),
(287,0,l)
);
},
{
closed = 1;
nodes = (
(175,0,l),
(175,659,l),
(183,700,l),
(38,700,l),
(38,0,l)
);
},
{
closed = 1;
nodes = (
(432,0,l),
(432,700,l),
(295,700,l),
(295,62,l),
(287,0,l)
);
}
);
};
layerId = "39DC058D-615C-44EE-9158-2D05AB2D1C50";
shapes = (
{
closed = 1;
nodes = (
(335,199,l),
(183,700,l),
(135,501,l),
(287,0,l)
);
},
{
closed = 1;
nodes = (
(175,0,l),
(175,659,l),
(183,700,l),
(38,700,l),
(38,0,l)
);
},
{
closed = 1;
nodes = (
(432,0,l),
(432,700,l),
(295,700,l),
(295,62,l),
(287,0,l)
);
}
);
width = 470;
}
);
unicode = 78;
},
{
glyphname = O;
kernLeft = O;
kernRight = O;
lastChange = "2025-11-14 09:03:11 +0000";
layers = (
{
background = {
guides = (
{
pos = (390,-555);
}
);
shapes = (
{
closed = 1;
nodes = (
(352,-16,o),
(434,83,o),
(434,223,cs),
(434,478,ls),
(434,618,o),
(352,716,o),
(236,716,cs),
(120,716,o),
(38,618,o),
(38,478,cs),
(38,223,ls),
(38,83,o),
(120,-16,o),
(236,-16,cs)
);
},
{
closed = 1;
nodes = (
(203,124,o),
(186,153,o),
(186,210,cs),
(186,490,ls),
(186,547,o),
(203,576,o),
(236,576,cs),
(269,576,o),
(286,547,o),
(286,490,cs),
(286,210,ls),
(286,153,o),
(269,124,o),
(236,124,cs)
);
}
);
};
guides = (
{
angle = 180;
pos = (374,-555);
}
);
layerId = "39DC058D-615C-44EE-9158-2D05AB2D1C50";
shapes = (
{
closed = 1;
nodes = (
(336,-16,o),
(418,83,o),
(418,223,cs),
(418,478,ls),
(418,618,o),
(336,716,o),
(220,716,cs),
(104,716,o),
(22,618,o),
(22,478,cs),
(22,223,ls),
(22,83,o),
(104,-16,o),
(220,-16,cs)
);
},
{
closed = 1;
nodes = (
(187,124,o),
(170,153,o),
(170,210,cs),
(170,490,ls),
(170,547,o),
(187,576,o),
(220,576,cs),
(253,576,o),
(270,547,o),
(270,490,cs),
(270,210,ls),
(270,153,o),
(253,124,o),
(220,124,cs)
);
}
);
width = 440;
}
);
unicode = 79;
},
{
glyphname = P;
kernLeft = H;
kernRight = P;
lastChange = "2025-11-14 09:03:11 +0000";
layers = (
{
background = {
shapes = (
{
closed = 1;
nodes = (
(234,246,ls),
(361,246,o),
(432,325,o),
(432,465,cs),
(432,482,ls),
(432,622,o),
(361,700,o),
(234,700,cs),
(99,700,l),
(99,564,l),
(214,564,ls),
(259,564,o),
(284,537,o),
(284,488,cs),
(284,458,ls),
(284,409,o),
(259,382,o),
(214,382,cs),
(99,382,l),
(99,246,l)
);
},
{
closed = 1;
nodes = (
(183,0,l),
(183,700,l),
(38,700,l),
(38,0,l)
);
}
);
};
layerId = "39DC058D-615C-44EE-9158-2D05AB2D1C50";
shapes = (
{
closed = 1;
nodes = (
(234,246,ls),
(361,246,o),
(432,325,o),
(432,465,cs),
(432,482,ls),
(432,622,o),
(361,700,o),
(234,700,cs),
(99,700,l),
(99,564,l),
(214,564,ls),
(259,564,o),
(284,537,o),
(284,488,cs),
(284,458,ls),
(284,409,o),
(259,382,o),
(214,382,cs),
(99,382,l),
(99,246,l)
);
},
{
closed = 1;
nodes = (
(183,0,l),
(183,700,l),
(38,700,l),
(38,0,l)
);
}
);
width = 440;
}
);
unicode = 80;
},
{
glyphname = Q;
kernLeft = Q;
kernRight = Q;
lastChange = "2025-11-14 09:03:11 +0000";
layers = (
{
background = {
shapes = (
{
closed = 1;
nodes = (
(434,0,l),
(434,139,l),
(346,139,l),
(346,155,l),
(407,166,o),
(434,222,o),
(434,262,cs),
(434,478,ls),
(434,618,o),
(352,716,o),
(236,716,cs),
(120,716,o),
(38,618,o),
(38,478,cs),
(38,239,ls),
(38,90,o),
(113,0,o),
(236,0,cs)
);
},
{
closed = 1;
nodes = (
(203,135,o),
(186,164,o),
(186,221,cs),
(186,490,ls),
(186,547,o),
(203,576,o),
(236,576,cs),
(269,576,o),
(286,547,o),
(286,490,cs),
(286,221,ls),
(286,164,o),
(269,135,o),
(236,135,cs)
);
}
);
};
layerId = "39DC058D-615C-44EE-9158-2D05AB2D1C50";
shapes = (
{
closed = 1;
nodes = (
(418,0,l),
(418,139,l),
(330,139,l),
(330,155,l),
(391,166,o),
(418,222,o),
(418,262,cs),
(418,478,ls),
(418,618,o),
(336,716,o),
(220,716,cs),
(104,716,o),
(22,618,o),
(22,478,cs),
(22,239,ls),
(22,90,o),
(97,0,o),
(220,0,cs)
);
},
{
closed = 1;
nodes = (
(187,135,o),
(170,164,o),
(170,221,cs),
(170,490,ls),
(170,547,o),
(187,576,o),
(220,576,cs),
(253,576,o),
(270,547,o),
(270,490,cs),
(270,221,ls),
(270,164,o),
(253,135,o),
(220,135,cs)
);
}
);
width = 441;
}
);
unicode = 81;
},
{
glyphname = R;
kernLeft = H;
kernRight = R;
lastChange = "2025-11-14 09:03:11 +0000";
layers = (
{
background = {
shapes = (
{
closed = 1;
nodes = (
(183,0,l),
(183,266,l),
(213,266,ls),
(258,266,o),
(285,245,o),
(285,208,cs),
(285,0,l),
(432,0,l),
(432,191,ls),
(432,265,o),
(391,305,o),
(316,319,c),
(316,335,l),
(386,351,o),
(422,394,o),
(422,462,cs),
(422,520,ls),
(422,639,o),
(352,700,o),
(219,700,cs),
(38,700,l),
(38,0,l)
);
},
{
closed = 1;
nodes = (
(183,564,l),
(205,564,ls),
(250,564,o),
(275,544,o),
(275,507,cs),
(275,450,ls),
(275,413,o),
(250,392,o),
(205,392,cs),
(183,392,l)
);
}
);
};
layerId = "39DC058D-615C-44EE-9158-2D05AB2D1C50";
shapes = (
{
closed = 1;
nodes = (
(183,0,l),
(183,266,l),
(213,266,ls),
(258,266,o),
(285,245,o),
(285,208,cs),
(285,0,l),
(432,0,l),
(432,191,ls),
(432,265,o),
(391,305,o),
(316,319,c),
(316,335,l),
(386,351,o),
(422,394,o),
(422,462,cs),
(422,520,ls),
(422,639,o),
(352,700,o),
(219,700,cs),
(38,700,l),
(38,0,l)
);
},
{
closed = 1;
nodes = (
(183,564,l),
(205,564,ls),
(250,564,o),
(275,544,o),
(275,507,cs),
(275,450,ls),
(275,413,o),
(250,392,o),
(205,392,cs),
(183,392,l)
);
}
);
width = 450;
}
);
unicode = 82;
},
{
glyphname = S;
kernLeft = S;
kernRight = S;
lastChange = "2025-11-14 09:03:11 +0000";
layers = (
{
background = {
shapes = (
{
closed = 1;
nodes = (
(333,-16,o),
(408,64,o),
(408,183,cs),
(408,303,o),
(332,354,o),
(259,408,cs),
(199,452,o),
(155,481,o),
(155,530,cs),
(155,562,o),
(175,584,o),
(206,584,cs),
(242,584,o),
(264,555,o),
(264,497,c),
(401,497,l),
(401,629,o),
(322,716,o),
(204,716,cs),
(96,716,o),
(16,642,o),
(16,526,cs),
(16,410,o),
(96,354,o),
(165,303,cs),
(219,263,o),
(269,230,o),
(269,171,cs),
(269,136,o),
(249,114,o),
(215,114,cs),
(177,114,o),
(151,143,o),
(151,209,c),
(14,209,l),
(14,66,o),
(92,-16,o),
(214,-16,cs)
);
}
);
};
guides = (
{
angle = 181.4388;
pos = (157,299);
}
);
layerId = "39DC058D-615C-44EE-9158-2D05AB2D1C50";
shapes = (
{
closed = 1;
nodes = (
(333,-16,o),
(408,64,o),
(408,183,cs),
(408,303,o),
(332,354,o),
(259,408,cs),
(199,452,o),
(155,481,o),
(155,530,cs),
(155,562,o),
(175,584,o),
(206,584,cs),
(242,584,o),
(264,555,o),
(264,497,c),
(401,497,l),
(401,629,o),
(322,716,o),
(204,716,cs),
(96,716,o),
(16,642,o),
(16,526,cs),
(16,410,o),
(96,354,o),
(165,303,cs),
(219,263,o),
(269,230,o),
(269,171,cs),
(269,136,o),
(249,114,o),
(215,114,cs),
(177,114,o),
(151,143,o),
(151,213,c),
(14,213,l),
(14,66,o),
(92,-16,o),
(214,-16,cs)
);
}
);
width = 419;
},
{
associatedMasterId = "39DC058D-615C-44EE-9158-2D05AB2D1C50";
background = {
guides = (
{
angle = 90;
pos = (206,675);
},
{
pos = (408,114);
}
);
shapes = (
{
closed = 1;
nodes = (
(324,-16,o),
(408,67,o),
(408,184,cs),
(408,290,o),
(339,348,o),
(268,399,cs),
(210,441,o),
(156,478,o),
(156,530,cs),
(156,559,o),
(174,584,o),
(207,584,cs),
(247,584,o),
(266,546,o),
(266,491,c),
(403,491,l),
(403,625,o),
(320,716,o),
(206,716,cs),
(97,716,o),
(14,634,o),
(14,522,cs),
(14,415,o),
(89,347,o),
(173,288,cs),
(226,250,o),
(266,221,o),
(266,171,cs),
(266,136,o),
(246,114,o),
(213,114,cs),
(176,114,o),
(151,153,o),
(151,209,c),
(14,209,l),
(14,81,o),
(94,-16,o),
(212,-16,cs)
);
}
);
};
guides = (
{
angle = 181.4388;
pos = (157,299);
}
);
layerId = "DC2DC32C-7C42-445C-9E58-ED7A8DE698A6";
name = "10 Jul 25 at 12:11";
shapes = (
{
closed = 1;
nodes = (
(324,-16,o),
(408,70,o),
(408,177,cs),
(408,293,o),
(339,348,o),
(268,399,cs),
(210,441,o),
(154,473,o),
(154,524,cs),
(154,554,o),
(172,578,o),
(203,578,cs),
(240,578,o),
(258,542,o),
(258,491,c),
(403,491,l),
(403,625,o),
(320,716,o),
(206,716,cs),
(97,716,o),
(14,633,o),
(14,524,cs),
(14,414,o),
(89,347,o),
(157,299,cs),
(215,258,o),
(268,227,o),
(268,177,cs),
(268,146,o),
(248,122,o),
(218,122,cs),
(184,122,o),
(159,158,o),
(159,209,c),
(14,209,l),
(14,81,o),
(94,-16,o),
(212,-16,cs)
);
}
);
width = 419;
},
{
associatedMasterId = "39DC058D-615C-44EE-9158-2D05AB2D1C50";
background = {
guides = (
{
angle = 90;
pos = (206,675);
},
{
pos = (408,114);
}
);
shapes = (
{
closed = 1;
nodes = (
(325,-16,o),
(408,67,o),
(408,184,cs),
(408,290,o),
(339,348,o),
(268,399,cs),
(210,441,o),
(160,478,o),
(160,530,cs),
(160,562,o),
(179,584,o),
(207,584,cs),
(244,584,o),
(264,555,o),
(264,501,c),
(401,501,l),
(401,629,o),
(323,716,o),
(206,716,cs),
(97,716,o),
(18,634,o),
(18,522,cs),
(18,415,o),
(89,347,o),
(173,288,cs),
(226,250,o),
(266,221,o),
(266,171,cs),
(266,136,o),
(246,114,o),
(213,114,cs),
(176,114,o),
(151,143,o),
(151,209,c),
(14,209,l),
(14,71,o),
(95,-16,o),
(211,-16,cs)
);
}
);
};
guides = (
{
angle = 181.4388;
pos = (157,299);
}
);
layerId = "EB8B19FF-B0E3-4794-BDCC-51111A76420A";
name = "10 Jul 25 at 12:15";
shapes = (
{
closed = 1;
nodes = (
(324,-16,o),
(408,67,o),
(408,184,cs),
(408,290,o),
(339,348,o),
(268,399,cs),
(210,441,o),
(156,478,o),
(156,530,cs),
(156,559,o),
(174,584,o),
(207,584,cs),
(247,584,o),
(264,556,o),
(264,501,c),
(401,501,l),
(401,629,o),
(323,716,o),
(206,716,cs),
(97,716,o),
(14,634,o),
(14,522,cs),
(14,415,o),
(89,347,o),
(173,288,cs),
(226,250,o),
(266,221,o),
(266,171,cs),
(266,136,o),
(246,114,o),
(213,114,cs),
(176,114,o),
(151,143,o),
(151,199,c),
(14,199,l),
(14,71,o),
(94,-16,o),
(212,-16,cs)
);
}
);
width = 419;
},
{
associatedMasterId = "39DC058D-615C-44EE-9158-2D05AB2D1C50";
background = {
shapes = (
{
closed = 1;
nodes = (
(327,-16,o),
(408,60,o),
(408,185,cs),
(408,307,o),
(332,357,o),
(263,408,cs),
(210,447,o),
(155,475,o),
(155,530,cs),
(155,562,o),
(177,584,o),
(207,584,cs),
(244,584,o),
(264,555,o),
(264,501,c),
(401,501,l),
(401,629,o),
(322,716,o),
(207,716,cs),
(96,716,o),
(16,636,o),
(16,520,cs),
(16,404,o),
(96,354,o),
(165,303,cs),
(218,264,o),
(266,230,o),
(266,171,cs),
(266,136,o),
(246,114,o),
(213,114,cs),
(176,114,o),
(151,143,o),
(151,209,c),
(14,209,l),
(14,64,o),
(97,-16,o),
(213,-16,cs)
);
}
);
};
guides = (
{
angle = 181.4388;
pos = (157,299);
}
);
layerId = "BCE5F503-07E5-4601-BB23-F4BD79A729FE";
name = "10 Jul 25 at 17:13";
shapes = (
{
closed = 1;
nodes = (
(333,-16,o),
(408,60,o),
(408,183,cs),
(408,307,o),
(332,357,o),
(263,408,cs),
(210,447,o),
(155,475,o),
(155,530,cs),
(155,562,o),
(177,584,o),
(207,584,cs),
(244,584,o),
(264,555,o),
(264,497,c),
(401,497,l),
(401,629,o),
(322,716,o),
(204,716,cs),
(96,716,o),
(16,642,o),
(16,526,cs),
(16,410,o),
(96,354,o),
(165,303,cs),
(218,264,o),
(266,230,o),
(266,171,cs),
(266,136,o),
(246,114,o),
(213,114,cs),
(176,114,o),
(151,143,o),
(151,209,c),
(14,209,l),
(14,66,o),
(92,-16,o),
(214,-16,cs)
);
}
);
width = 419;
},
{
associatedMasterId = "39DC058D-615C-44EE-9158-2D05AB2D1C50";
background = {
shapes = (
{
closed = 1;
nodes = (
(333,-16,o),
(408,64,o),
(408,183,cs),
(408,303,o),
(332,354,o),
(259,408,cs),
(199,452,o),
(155,481,o),
(155,530,cs),
(155,562,o),
(175,584,o),
(206,584,cs),
(242,584,o),
(264,555,o),
(264,497,c),
(401,497,l),
(401,629,o),
(322,716,o),
(204,716,cs),
(96,716,o),
(16,642,o),
(16,526,cs),
(16,410,o),
(96,357,o),
(165,306,cs),
(219,266,o),
(269,230,o),
(269,171,cs),
(269,136,o),
(249,114,o),
(215,114,cs),
(177,114,o),
(151,143,o),
(151,209,c),
(14,209,l),
(14,66,o),
(92,-16,o),
(214,-16,cs)
);
}
);
};
guides = (
{
angle = 181.4388;
pos = (157,299);
}
);
layerId = "C81D22F2-BF16-447D-8540-B6C31BEECE3F";
name = "10 Jul 25 at 17:16";
shapes = (
{
closed = 1;
nodes = (
(333,-16,o),
(408,60,o),
(408,183,cs),
(408,307,o),
(332,357,o),
(272,401,cs),
(199,455,o),
(155,475,o),
(155,530,cs),
(155,562,o),
(175,584,o),
(206,584,cs),
(242,584,o),
(264,555,o),
(264,497,c),
(401,497,l),
(401,629,o),
(322,716,o),
(204,716,cs),
(96,716,o),
(16,642,o),
(16,526,cs),
(16,410,o),
(96,354,o),
(165,303,cs),
(218,264,o),
(266,230,o),
(266,171,cs),
(266,136,o),
(246,114,o),
(213,114,cs),
(176,114,o),
(151,143,o),
(151,209,c),
(14,209,l),
(14,66,o),
(92,-16,o),
(214,-16,cs)
);
}
);
width = 419;
}
);
unicode = 83;
},
{
glyphname = T;
kernLeft = T;
kernRight = T;
lastChange = "2025-11-14 09:03:11 +0000";
layers = (
{
background = {
shapes = (
{
closed = 1;
nodes = (
(307,0,l),
(307,562,l),
(432,562,l),
(432,700,l),
(38,700,l),
(38,562,l),
(163,562,l),
(163,0,l)
);
}
);
};
layerId = "39DC058D-615C-44EE-9158-2D05AB2D1C50";
shapes = (
{
closed = 1;
nodes = (
(273,0,l),
(273,562,l),
(398,562,l),
(398,700,l),
(4,700,l),
(4,562,l),
(129,562,l),
(129,0,l)
);
}
);
width = 402;
}
);
unicode = 84;
},
{
glyphname = U;
kernLeft = U;
kernRight = U;
lastChange = "2025-11-14 09:03:11 +0000";
layers = (
{
background = {
shapes = (
{
closed = 1;
nodes = (
(362,-16,o),
(432,70,o),
(432,212,cs),
(432,700,l),
(287,700,l),
(287,213,ls),
(287,151,o),
(271,124,o),
(236,124,cs),
(199,124,o),
(183,151,o),
(183,213,cs),
(183,700,l),
(38,700,l),
(38,212,ls),
(38,70,o),
(109,-16,o),
(236,-16,cs)
);
}
);
};
layerId = "39DC058D-615C-44EE-9158-2D05AB2D1C50";
shapes = (
{
closed = 1;
nodes = (
(359,-16,o),
(429,70,o),
(429,212,cs),
(429,700,l),
(284,700,l),
(284,213,ls),
(284,151,o),
(268,124,o),
(233,124,cs),
(196,124,o),
(180,151,o),
(180,213,cs),
(180,700,l),
(35,700,l),
(35,212,ls),
(35,70,o),
(106,-16,o),
(233,-16,cs)
);
}
);
width = 464;
}
);
unicode = 85;
},
{
glyphname = V;
kernLeft = V;
kernRight = V;
lastChange = "2025-11-14 09:03:11 +0000";
layers = (
{
layerId = "39DC058D-615C-44EE-9158-2D05AB2D1C50";
shapes = (
{
closed = 1;
nodes = (
(292,0,l),
(397,700,l),
(251,700,l),
(163,0,l)
);
},
{
closed = 1;
nodes = (
(233,0,l),
(148,700,l),
(3,700,l),
(109,0,l)
);
}
);
width = 400;
}
);
unicode = 86;
},
{
glyphname = W;
kernLeft = W;
kernRight = W;
lastChange = "2025-11-14 09:03:11 +0000";
layers = (
{
background = {
shapes = (
{
closed = 1;
nodes = (
(211,0,l),
(249,428,l),
(223,428,l),
(258,0,l),
(365,0,l),
(432,700,l),
(317,700,l),
(276,222,l),
(297,221,l),
(270,549,l),
(200,549,l),
(172,231,l),
(194,230,l),
(156,700,l),
(38,700,l),
(105,0,l)
);
}
);
};
layerId = "39DC058D-615C-44EE-9158-2D05AB2D1C50";
shapes = (
{
closed = 1;
nodes = (
(186,0,l),
(224,428,l),
(198,428,l),
(233,0,l),
(340,0,l),
(407,700,l),
(292,700,l),
(251,222,l),
(272,221,l),
(245,549,l),
(175,549,l),
(147,231,l),
(169,230,l),
(131,700,l),
(13,700,l),
(80,0,l)
);
}
);
width = 420;
}
);
unicode = 87;
},
{
glyphname = X;
kernLeft = X;
kernRight = X;
lastChange = "2025-11-14 09:03:11 +0000";
layers = (
{
background = {
shapes = (
{
closed = 1;
nodes = (
(190,0,l),
(234,163,l),
(281,0,l),
(432,0,l),
(320,350,l),
(432,700,l),
(281,700,l),
(234,537,l),
(190,700,l),
(38,700,l),
(151,350,l),
(38,0,l)
);
}
);
};
layerId = "39DC058D-615C-44EE-9158-2D05AB2D1C50";
shapes = (
{
closed = 1;
nodes = (
(151,0,l),
(195,163,l),
(242,0,l),
(393,0,l),
(281,350,l),
(393,700,l),
(242,700,l),
(195,537,l),
(151,700,l),
(-1,700,l),
(112,350,l),
(-1,0,l)
);
}
);
width = 392;
}
);
unicode = 88;
},
{
glyphname = Y;
kernLeft = Y;
kernRight = Y;
lastChange = "2025-11-14 09:03:11 +0000";
layers = (
{
background = {
shapes = (
{
closed = 1;
nodes = (
(307,0,l),
(307,291,l),
(432,700,l),
(287,700,l),
(235,512,l),
(186,700,l),
(38,700,l),
(163,291,l),
(163,0,l)
);
}
);
};
layerId = "39DC058D-615C-44EE-9158-2D05AB2D1C50";
shapes = (
{
closed = 1;
nodes = (
(266,0,l),
(266,291,l),
(391,700,l),
(246,700,l),
(194,512,l),
(145,700,l),
(-3,700,l),
(122,291,l),
(122,0,l)
);
}
);
width = 388;
}
);
unicode = 89;
},
{
glyphname = Z;
kernLeft = Z;
kernRight = Z;
lastChange = "2025-11-14 09:03:11 +0000";
layers = (
{
background = {
guides = (
{
pos = (316,591);
},
{
angle = 180;
pos = (288,108);
}
);
shapes = (
{
closed = 1;
nodes = (
(420,0,l),
(420,138,l),
(209,138,l),
(432,591,l),
(432,700,l),
(49,700,l),
(49,561,l),
(261,561,l),
(38,108,l),
(38,0,l)
);
}
);
};
guides = (
{
angle = 180;
pos = (288,591);
},
{
angle = 180;
pos = (260,108);
}
);
layerId = "39DC058D-615C-44EE-9158-2D05AB2D1C50";
shapes = (
{
closed = 1;
nodes = (
(392,0,l),
(392,138,l),
(181,138,l),
(404,591,l),
(404,700,l),
(21,700,l),
(21,561,l),
(233,561,l),
(10,108,l),
(10,0,l)
);
}
);
width = 413;
}
);
unicode = 90;
},
{
glyphname = J.ss01;
kernLeft = J.ss01;
kernRight = J;
lastChange = "2025-11-14 09:03:11 +0000";
layers = (
{
background = {
shapes = (
{
closed = 1;
nodes = (
(362,-16,o),
(432,70,o),
(432,212,cs),
(432,700,l),
(287,700,l),
(287,213,ls),
(287,151,o),
(271,124,o),
(236,124,cs),
(199,124,o),
(183,151,o),
(183,213,cs),
(183,260,l),
(38,260,l),
(38,212,ls),
(38,70,o),
(109,-16,o),
(236,-16,cs)
);
}
);
};
layerId = "39DC058D-615C-44EE-9158-2D05AB2D1C50";
shapes = (
{
closed = 1;
nodes = (
(327,-16,o),
(397,70,o),
(397,212,cs),
(397,700,l),
(252,700,l),
(252,213,ls),
(252,151,o),
(236,124,o),
(201,124,cs),
(164,124,o),
(148,151,o),
(148,213,cs),
(148,260,l),
(3,260,l),
(3,212,ls),
(3,70,o),
(74,-16,o),
(201,-16,cs)
);
}
);
width = 432;
}
);
},
{
glyphname = zero;
lastChange = "2025-11-14 09:03:11 +0000";
layers = (
{
background = {
shapes = (
{
closed = 1;
nodes = (
(351,-16,o),
(433,83,o),
(433,223,cs),
(433,478,ls),
(433,618,o),
(351,716,o),
(235,716,cs),
(119,716,o),
(37,618,o),
(37,478,cs),
(37,223,ls),
(37,83,o),
(119,-16,o),
(235,-16,cs)
);
},
{
closed = 1;
nodes = (
(202,124,o),
(185,153,o),
(185,210,cs),
(185,490,ls),
(185,547,o),
(202,576,o),
(235,576,cs),
(268,576,o),
(285,547,o),
(285,490,cs),
(285,210,ls),
(285,153,o),
(268,124,o),
(235,124,cs)
);
}
);
};
layerId = "39DC058D-615C-44EE-9158-2D05AB2D1C50";
shapes = (
{
closed = 1;
nodes = (
(338,-16,o),
(420,83,o),
(420,223,cs),
(420,478,ls),
(420,618,o),
(338,716,o),
(222,716,cs),
(106,716,o),
(24,618,o),
(24,478,cs),
(24,223,ls),
(24,83,o),
(106,-16,o),
(222,-16,cs)
);
},
{
closed = 1;
nodes = (
(189,124,o),
(172,153,o),
(172,210,cs),
(172,490,ls),
(172,547,o),
(189,576,o),
(222,576,cs),
(255,576,o),
(272,547,o),
(272,490,cs),
(272,210,ls),
(272,153,o),
(255,124,o),
(222,124,cs)
);
}
);
width = 444;
}
);
unicode = 48;
},
{
glyphname = one;
lastChange = "2025-11-14 09:03:11 +0000";
layers = (
{
layerId = "39DC058D-615C-44EE-9158-2D05AB2D1C50";
shapes = (
{
closed = 1;
nodes = (
(292,0,l),
(292,700,l),
(168,700,l),
(22,620,l),
(22,473,l),
(147,541,l),
(147,0,l)
);
},
{
closed = 1;
nodes = (
(416,0,l),
(416,132,l),
(22,132,l),
(22,0,l)
);
}
);
width = 423;
}
);
unicode = 49;
},
{
glyphname = two;
lastChange = "2025-11-14 09:03:11 +0000";
layers = (
{
layerId = "39DC058D-615C-44EE-9158-2D05AB2D1C50";
shapes = (
{
closed = 1;
nodes = (
(403,0,l),
(408,132,l),
(145,132,l),
(165,86,l),
(307,278,ls),
(384,382,o),
(408,451,o),
(408,520,cs),
(408,657,o),
(312,716,o),
(218,716,cs),
(117,716,o),
(19,649,o),
(19,497,c),
(161,497,l),
(161,547,o),
(181,576,o),
(213,576,cs),
(243,576,o),
(262,551,o),
(262,515,cs),
(262,480,o),
(247,434,o),
(207,380,cs),
(12,117,l),
(12,0,l)
);
}
);
width = 425;
}
);
unicode = 50;
},
{
glyphname = three;
lastChange = "2025-11-14 09:03:11 +0000";
layers = (
{
background = {
guides = (
{
angle = 90;
pos = (37,190);
},
{
angle = 90;
pos = (433,361);
}
);
shapes = (
{
closed = 1;
nodes = (
(355,-16,o),
(433,80,o),
(433,228,cs),
(433,358,o),
(370,445,o),
(277,449,c),
(279,408,l),
(415,609,l),
(415,700,l),
(51,700,l),
(46,568,l),
(240,568,l),
(104,368,l),
(207,299,l),
(215,311,o),
(225,319,o),
(239,319,cs),
(269,319,o),
(285,289,o),
(285,222,cs),
(285,154,o),
(269,124,o),
(235,124,cs),
(204,124,o),
(185,149,o),
(185,201,c),
(37,201,l),
(37,75,o),
(118,-16,o),
(235,-16,cs)
);
}
);
};
guides = (
{
angle = 177.9546;
pos = (9,190);
},
{
angle = 177.9546;
pos = (405,361);
}
);
layerId = "39DC058D-615C-44EE-9158-2D05AB2D1C50";
shapes = (
{
closed = 1;
nodes = (
(327,-16,o),
(405,80,o),
(405,228,cs),
(405,358,o),
(342,445,o),
(249,449,c),
(251,408,l),
(387,609,l),
(387,700,l),
(23,700,l),
(18,568,l),
(212,568,l),
(76,368,l),
(179,299,l),
(187,311,o),
(197,319,o),
(211,319,cs),
(241,319,o),
(257,289,o),
(257,222,cs),
(257,154,o),
(241,124,o),
(207,124,cs),
(176,124,o),
(157,149,o),
(157,201,c),
(9,201,l),
(9,75,o),
(90,-16,o),
(207,-16,cs)
);
}
);
width = 420;
}
);
unicode = 51;
},
{
glyphname = four;
lastChange = "2025-11-14 09:03:11 +0000";
layers = (
{
layerId = "39DC058D-615C-44EE-9158-2D05AB2D1C50";
shapes = (
{
closed = 1;
nodes = (
(265,700,l),
(120,700,l),
(11,238,l),
(123,130,l)
);
},
{
closed = 1;
nodes = (
(407,130,l),
(407,262,l),
(137,262,l),
(11,238,l),
(11,130,l)
);
},
{
closed = 1;
nodes = (
(353,0,l),
(353,439,l),
(208,370,l),
(208,0,l)
);
}
);
width = 417;
}
);
unicode = 52;
},
{
glyphname = five;
lastChange = "2025-11-14 09:03:11 +0000";
layers = (
{
background = {
shapes = (
{
closed = 1;
nodes = (
(357,-16,o),
(433,82,o),
(433,233,cs),
(433,366,o),
(374,459,o),
(290,459,cs),
(264,459,o),
(238,450,o),
(218,431,c),
(243,568,l),
(413,568,l),
(418,700,l),
(119,700,l),
(54,334,l),
(193,291,l),
(202,310,o),
(217,319,o),
(236,319,cs),
(269,319,o),
(285,287,o),
(285,222,cs),
(285,156,o),
(268,124,o),
(235,124,cs),
(203,124,o),
(185,148,o),
(185,201,c),
(37,201,l),
(37,69,o),
(123,-16,o),
(236,-16,cs)
);
}
);
};
layerId = "39DC058D-615C-44EE-9158-2D05AB2D1C50";
shapes = (
{
closed = 1;
nodes = (
(332,-16,o),
(408,82,o),
(408,233,cs),
(408,366,o),
(349,459,o),
(265,459,cs),
(239,459,o),
(213,450,o),
(193,431,c),
(218,568,l),
(388,568,l),
(393,700,l),
(94,700,l),
(29,334,l),
(168,291,l),
(177,310,o),
(192,319,o),
(211,319,cs),
(244,319,o),
(260,287,o),
(260,222,cs),
(260,156,o),
(243,124,o),
(210,124,cs),
(178,124,o),
(160,148,o),
(160,201,c),
(12,201,l),
(12,69,o),
(98,-16,o),
(211,-16,cs)
);
}
);
width = 421;
}
);
unicode = 53;
},
{
glyphname = six;
lastChange = "2025-11-14 09:03:11 +0000";
layers = (
{
background = {
guides = (
{
pos = (239,220);
},
{
pos = (239,223);
}
);
shapes = (
{
closed = 1;
nodes = (
(351,-16,o),
(432,62,o),
(432,221,cs),
(432,354,o),
(374,449,o),
(278,449,cs),
(236,449,o),
(204,436,o),
(170,377,c),
(186,358,l),
(186,490,ls),
(186,547,o),
(201,576,o),
(235,576,cs),
(267,576,o),
(284,550,o),
(284,499,c),
(432,499,l),
(432,632,o),
(349,716,o),
(235,716,cs),
(112,716,o),
(38,618,o),
(38,478,cs),
(38,213,ls),
(38,73,o),
(119,-16,o),
(238,-16,cs)
);
},
{
closed = 1;
nodes = (
(202,124,o),
(186,153,o),
(186,220,cs),
(186,223,ls),
(186,293,o),
(201,319,o),
(235,319,cs),
(268,319,o),
(284,287,o),
(284,223,cs),
(284,220,ls),
(284,155,o),
(267,124,o),
(235,124,cs)
);
}
);
};
guides = (
{
angle = 180;
pos = (226,220);
},
{
angle = 180;
pos = (226,223);
}
);
layerId = "39DC058D-615C-44EE-9158-2D05AB2D1C50";
shapes = (
{
closed = 1;
nodes = (
(338,-16,o),
(419,62,o),
(419,221,cs),
(419,354,o),
(361,449,o),
(265,449,cs),
(223,449,o),
(191,436,o),
(157,377,c),
(173,358,l),
(173,490,ls),
(173,547,o),
(188,576,o),
(222,576,cs),
(254,576,o),
(271,550,o),
(271,499,c),
(419,499,l),
(419,632,o),
(336,716,o),
(222,716,cs),
(99,716,o),
(25,618,o),
(25,478,cs),
(25,213,ls),
(25,73,o),
(106,-16,o),
(225,-16,cs)
);
},
{
closed = 1;
nodes = (
(189,124,o),
(173,153,o),
(173,220,cs),
(173,223,ls),
(173,293,o),
(188,319,o),
(222,319,cs),
(255,319,o),
(271,287,o),
(271,223,cs),
(271,220,ls),
(271,155,o),
(254,124,o),
(222,124,cs)
);
}
);
width = 439;
}
);
unicode = 54;
},
{
glyphname = seven;
lastChange = "2025-11-14 09:03:11 +0000";
layers = (
{
layerId = "39DC058D-615C-44EE-9158-2D05AB2D1C50";
shapes = (
{
closed = 1;
nodes = (
(261,0,l),
(257,255,o),
(310,421,o),
(403,588,c),
(337,640,l),
(182,520,o),
(97,272,o),
(95,0,c)
);
},
{
closed = 1;
nodes = (
(299,568,l),
(403,588,l),
(403,700,l),
(7,700,l),
(7,568,l)
);
}
);
width = 411;
}
);
unicode = 55;
},
{
glyphname = eight;
lastChange = "2025-11-14 09:03:11 +0000";
layers = (
{
background = {
shapes = (
{
closed = 1;
nodes = (
(358,-16,o),
(433,67,o),
(433,185,cs),
(433,259,o),
(405,320,o),
(344,357,c),
(401,388,o),
(424,450,o),
(424,516,cs),
(424,634,o),
(352,716,o),
(235,716,cs),
(118,716,o),
(46,634,o),
(46,516,cs),
(46,450,o),
(69,388,o),
(126,357,c),
(65,320,o),
(37,259,o),
(37,185,cs),
(37,67,o),
(112,-16,o),
(235,-16,cs)
);
},
{
closed = 1;
nodes = (
(202,115,o),
(185,145,o),
(185,204,cs),
(185,263,o),
(202,293,o),
(235,293,cs),
(268,293,o),
(285,263,o),
(285,204,cs),
(285,145,o),
(268,115,o),
(235,115,cs)
);
},
{
closed = 1;
nodes = (
(203,420,o),
(187,449,o),
(187,505,cs),
(187,561,o),
(203,590,o),
(235,590,cs),
(267,590,o),
(283,561,o),
(283,505,cs),
(283,449,o),
(267,420,o),
(235,420,cs)
);
}
);
};
layerId = "39DC058D-615C-44EE-9158-2D05AB2D1C50";
shapes = (
{
closed = 1;
nodes = (
(339,-16,o),
(414,67,o),
(414,185,cs),
(414,259,o),
(386,320,o),
(325,357,c),
(382,388,o),
(405,450,o),
(405,516,cs),
(405,634,o),
(333,716,o),
(216,716,cs),
(99,716,o),
(27,634,o),
(27,516,cs),
(27,450,o),
(50,388,o),
(107,357,c),
(46,320,o),
(18,259,o),
(18,185,cs),
(18,67,o),
(93,-16,o),
(216,-16,cs)
);
},
{
closed = 1;
nodes = (
(183,115,o),
(166,145,o),
(166,204,cs),
(166,263,o),
(183,293,o),
(216,293,cs),
(249,293,o),
(266,263,o),
(266,204,cs),
(266,145,o),
(249,115,o),
(216,115,cs)
);
},
{
closed = 1;
nodes = (
(184,420,o),
(168,449,o),
(168,505,cs),
(168,561,o),
(184,590,o),
(216,590,cs),
(248,590,o),
(264,561,o),
(264,505,cs),
(264,449,o),
(248,420,o),
(216,420,cs)
);
}
);
width = 432;
}
);
unicode = 56;
},
{
glyphname = period;
kernLeft = period;
kernRight = period;
lastChange = "2025-11-14 09:03:11 +0000";
layers = (
{
guides = (
{
angle = 180;
pos = (52,-539);
}
);
layerId = "39DC058D-615C-44EE-9158-2D05AB2D1C50";
shapes = (
{
closed = 1;
nodes = (
(178,0,l),
(178,157,l),
(21,157,l),
(21,0,l)
);
}
);
width = 199;
}
);
unicode = 46;
},
{
glyphname = comma;
kernLeft = period;
kernRight = period;
lastChange = "2025-11-14 09:03:11 +0000";
layers = (
{
background = {
shapes = (
{
closed = 1;
nodes = (
(239,-111,l),
(314,-4,l),
(314,157,l),
(157,157,l),
(157,0,l),
(231,0,l),
(157,-111,l)
);
}
);
};
layerId = "39DC058D-615C-44EE-9158-2D05AB2D1C50";
shapes = (
{
closed = 1;
nodes = (
(103,-111,l),
(178,-4,l),
(178,157,l),
(21,157,l),
(21,0,l),
(95,0,l),
(21,-111,l)
);
}
);
width = 197;
}
);
unicode = 44;
},
{
glyphname = colon;
kernLeft = colon;
kernRight = colon;
lastChange = "2025-11-14 09:03:11 +0000";
layers = (
{
layerId = "39DC058D-615C-44EE-9158-2D05AB2D1C50";
shapes = (
{
closed = 1;
nodes = (
(190,343,l),
(190,500,l),
(33,500,l),
(33,343,l)
);
},
{
closed = 1;
nodes = (
(190,0,l),
(190,157,l),
(33,157,l),
(33,0,l)
);
}
);
width = 223;
}
);
unicode = 58;
},
{
glyphname = semicolon;
kernLeft = colon;
kernRight = colon;
lastChange = "2025-11-14 09:03:11 +0000";
layers = (
{
background = {
shapes = (
{
closed = 1;
nodes = (
(239,-111,l),
(314,-4,l),
(314,157,l),
(157,157,l),
(157,0,l),
(231,0,l),
(157,-111,l)
);
},
{
closed = 1;
nodes = (
(314,343,l),
(314,500,l),
(157,500,l),
(157,343,l)
);
}
);
};
layerId = "39DC058D-615C-44EE-9158-2D05AB2D1C50";
shapes = (
{
closed = 1;
nodes = (
(115,-111,l),
(190,-4,l),
(190,157,l),
(33,157,l),
(33,0,l),
(107,0,l),
(33,-111,l)
);
},
{
closed = 1;
nodes = (
(190,343,l),
(190,500,l),
(33,500,l),
(33,343,l)
);
}
);
width = 222;
}
);
unicode = 59;
},
{
glyphname = ellipsis;
kernLeft = period;
kernRight = period;
lastChange = "2025-11-14 09:03:11 +0000";
layers = (
{
background = {
shapes = (
{
closed = 1;
nodes = (
(440,0,l),
(440,157,l),
(313,157,l),
(313,0,l)
);
},
{
closed = 1;
nodes = (
(157,0,l),
(157,157,l),
(30,157,l),
(30,0,l)
);
},
{
closed = 1;
nodes = (
(299,0,l),
(299,157,l),
(172,157,l),
(172,0,l)
);
}
);
};
layerId = "39DC058D-615C-44EE-9158-2D05AB2D1C50";
shapes = (
{
closed = 1;
nodes = (
(431,0,l),
(431,157,l),
(304,157,l),
(304,0,l)
);
},
{
closed = 1;
nodes = (
(148,0,l),
(148,157,l),
(21,157,l),
(21,0,l)
);
},
{
closed = 1;
nodes = (
(290,0,l),
(290,157,l),
(163,157,l),
(163,0,l)
);
}
);
width = 452;
}
);
unicode = 8230;
},
{
glyphname = exclam;
lastChange = "2025-11-14 09:03:11 +0000";
layers = (
{
background = {
shapes = (
{
closed = 1;
nodes = (
(272,250,l),
(308,396,l),
(308,700,l),
(163,700,l),
(163,396,l),
(199,250,l)
);
},
{
closed = 1;
nodes = (
(314,0,l),
(314,157,l),
(157,157,l),
(157,0,l)
);
}
);
};
layerId = "39DC058D-615C-44EE-9158-2D05AB2D1C50";
shapes = (
{
closed = 1;
nodes = (
(140,250,l),
(176,396,l),
(176,700,l),
(31,700,l),
(31,396,l),
(67,250,l)
);
},
{
closed = 1;
nodes = (
(182,0,l),
(182,157,l),
(25,157,l),
(25,0,l)
);
}
);
width = 207;
}
);
unicode = 33;
},
{
glyphname = question;
lastChange = "2025-11-14 09:03:11 +0000";
layers = (
{
layerId = "39DC058D-615C-44EE-9158-2D05AB2D1C50";
shapes = (
{
closed = 1;
nodes = (
(237,250,l),
(237,336,l),
(319,348,o),
(396,410,o),
(396,526,cs),
(396,657,o),
(300,716,o),
(206,716,cs),
(105,716,o),
(7,650,o),
(7,501,c),
(149,501,l),
(149,548,o),
(169,576,o),
(201,576,cs),
(231,576,o),
(250,551,o),
(250,509,cs),
(250,469,o),
(231,444,o),
(201,444,cs),
(117,444,l),
(117,250,l)
);
},
{
closed = 1;
nodes = (
(256,0,l),
(256,157,l),
(99,157,l),
(99,0,l)
);
}
);
width = 405;
}
);
unicode = 63;
},
{
glyphname = bullet;
lastChange = "2025-11-14 09:03:11 +0000";
layers = (
{
layerId = "39DC058D-615C-44EE-9158-2D05AB2D1C50";
shapes = (
{
closed = 1;
nodes = (
(246,181,o),
(313,248,o),
(313,331,cs),
(313,414,o),
(246,481,o),
(163,481,cs),
(80,481,o),
(13,414,o),
(13,331,cs),
(13,248,o),
(80,181,o),
(163,181,cs)
);
}
);
width = 326;
}
);
unicode = 8226;
},
{
glyphname = asterisk;
lastChange = "2025-11-14 09:03:11 +0000";
layers = (
{
layerId = "39DC058D-615C-44EE-9158-2D05AB2D1C50";
shapes = (
{
closed = 1;
nodes = (
(192,464,l),
(255,352,l),
(344,423,l),
(254,505,l),
(379,528,l),
(341,635,l),
(228,573,l),
(248,700,l),
(136,700,l),
(155,573,l),
(43,635,l),
(5,528,l),
(130,505,l),
(40,423,l),
(129,352,l)
);
}
);
width = 384;
}
);
unicode = 42;
},
{
glyphname = numbersign;
lastChange = "2025-11-14 09:03:11 +0000";
layers = (
{
layerId = "39DC058D-615C-44EE-9158-2D05AB2D1C50";
shapes = (
{
closed = 1;
nodes = (
(322,0,l),
(369,700,l),
(269,700,l),
(222,0,l)
);
},
{
closed = 1;
nodes = (
(401,160,l),
(401,270,l),
(11,270,l),
(11,160,l)
);
},
{
closed = 1;
nodes = (
(163,0,l),
(210,700,l),
(110,700,l),
(63,0,l)
);
},
{
closed = 1;
nodes = (
(421,430,l),
(421,540,l),
(31,540,l),
(31,430,l)
);
}
);
width = 432;
}
);
unicode = 35;
},
{
glyphname = slash;
lastChange = "2025-11-14 09:03:11 +0000";
layers = (
{
layerId = "39DC058D-615C-44EE-9158-2D05AB2D1C50";
shapes = (
{
closed = 1;
nodes = (
(144,0,l),
(406,700,l),
(268,700,l),
(6,0,l)
);
}
);
width = 412;
}
);
unicode = 47;
},
{
glyphname = hyphen;
kernLeft = hyphen;
kernRight = hyphen;
lastChange = "2025-11-14 09:03:11 +0000";
layers = (
{
layerId = "39DC058D-615C-44EE-9158-2D05AB2D1C50";
shapes = (
{
closed = 1;
nodes = (
(417,220,l),
(417,350,l),
(23,350,l),
(23,220,l)
);
}
);
width = 440;
}
);
unicode = 45;
},
{
glyphname = endash;
kernLeft = hyphen;
kernRight = hyphen;
lastChange = "2025-11-14 09:03:11 +0000";
layers = (
{
layerId = "39DC058D-615C-44EE-9158-2D05AB2D1C50";
shapes = (
{
closed = 1;
nodes = (
(437,220,l),
(437,350,l),
(23,350,l),
(23,220,l)
);
}
);
width = 460;
}
);
unicode = 8211;
},
{
glyphname = emdash;
kernLeft = hyphen;
kernRight = hyphen;
lastChange = "2025-11-14 09:03:11 +0000";
layers = (
{
layerId = "39DC058D-615C-44EE-9158-2D05AB2D1C50";
shapes = (
{
closed = 1;
nodes = (
(457,220,l),
(457,350,l),
(23,350,l),
(23,220,l)
);
}
);
width = 480;
}
);
unicode = 8212;
},
{
glyphname = underscore;
lastChange = "2025-11-14 09:03:11 +0000";
layers = (
{
layerId = "39DC058D-615C-44EE-9158-2D05AB2D1C50";
shapes = (
{
closed = 1;
nodes = (
(469,-184,l),
(469,-46,l),
(9,-46,l),
(9,-184,l)
);
}
);
width = 478;
}
);
unicode = 95;
},
{
glyphname = parenleft;
lastChange = "2025-11-14 09:03:11 +0000";
layers = (
{
layerId = "39DC058D-615C-44EE-9158-2D05AB2D1C50";
shapes = (
{
closed = 1;
nodes = (
(232,-59,l),
(185,21,o),
(160,185,o),
(160,345,cs),
(160,508,o),
(186,668,o),
(232,752,c),
(184,780,l),
(75,683,o),
(15,514,o),
(15,345,cs),
(15,176,o),
(75,8,o),
(184,-90,c)
);
}
);
width = 235;
}
);
unicode = 40;
},
{
glyphname = braceleft;
lastChange = "2025-11-14 09:03:11 +0000";
layers = (
{
layerId = "39DC058D-615C-44EE-9158-2D05AB2D1C50";
shapes = (
{
closed = 1;
nodes = (
(242,-90,l),
(242,36,l),
(210,36,ls),
(190,36,o),
(183,46,o),
(185,70,cs),
(201,232,ls),
(209,310,o),
(181,337,o),
(134,345,c),
(181,353,o),
(209,380,o),
(201,458,cs),
(185,620,ls),
(183,644,o),
(190,654,o),
(210,654,cs),
(242,654,l),
(242,780,l),
(196,780,ls),
(77,780,o),
(32,725,o),
(46,600,cs),
(59,478,ls),
(66,415,o),
(49,398,o),
(13,398,c),
(13,292,l),
(49,292,o),
(66,275,o),
(59,212,cs),
(46,90,ls),
(32,-35,o),
(77,-90,o),
(196,-90,cs)
);
}
);
width = 258;
}
);
unicode = 123;
},
{
glyphname = bracketleft;
lastChange = "2025-11-14 09:03:11 +0000";
layers = (
{
layerId = "39DC058D-615C-44EE-9158-2D05AB2D1C50";
shapes = (
{
closed = 1;
nodes = (
(255,-90,l),
(255,36,l),
(184,36,l),
(184,654,l),
(255,654,l),
(255,780,l),
(39,780,l),
(39,-90,l)
);
}
);
width = 266;
}
);
unicode = 91;
},
{
glyphname = quotedblleft;
kernLeft = quoteleft;
kernRight = quoteleft;
lastChange = "2025-11-14 09:03:11 +0000";
layers = (
{
layerId = "39DC058D-615C-44EE-9158-2D05AB2D1C50";
shapes = (
{
closed = 1;
nodes = (
(359,432,l),
(359,589,l),
(285,589,l),
(359,700,l),
(277,700,l),
(202,593,l),
(202,432,l)
);
},
{
closed = 1;
nodes = (
(178,432,l),
(178,589,l),
(104,589,l),
(178,700,l),
(96,700,l),
(21,593,l),
(21,432,l)
);
}
);
width = 382;
}
);
unicode = 8220;
},
{
glyphname = quotedblright;
kernLeft = quoteright;
kernRight = quoteright;
lastChange = "2025-11-14 09:03:11 +0000";
layers = (
{
layerId = "39DC058D-615C-44EE-9158-2D05AB2D1C50";
shapes = (
{
closed = 1;
nodes = (
(287,432,l),
(362,539,l),
(362,700,l),
(205,700,l),
(205,543,l),
(279,543,l),
(205,432,l)
);
},
{
closed = 1;
nodes = (
(106,432,l),
(181,539,l),
(181,700,l),
(24,700,l),
(24,543,l),
(98,543,l),
(24,432,l)
);
}
);
width = 379;
}
);
unicode = 8221;
},
{
glyphname = quoteleft;
kernLeft = quoteleft;
kernRight = quoteleft;
lastChange = "2025-11-14 09:03:11 +0000";
layers = (
{
layerId = "39DC058D-615C-44EE-9158-2D05AB2D1C50";
shapes = (
{
closed = 1;
nodes = (
(178,432,l),
(178,589,l),
(104,589,l),
(178,700,l),
(96,700,l),
(21,593,l),
(21,432,l)
);
}
);
width = 201;
}
);
unicode = 8216;
},
{
glyphname = quoteright;
kernLeft = quoteright;
kernRight = quoteright;
lastChange = "2025-11-14 09:03:11 +0000";
layers = (
{
layerId = "39DC058D-615C-44EE-9158-2D05AB2D1C50";
shapes = (
{
closed = 1;
nodes = (
(106,432,l),
(181,539,l),
(181,700,l),
(24,700,l),
(24,543,l),
(98,543,l),
(24,432,l)
);
}
);
width = 198;
}
);
unicode = 8217;
},
{
glyphname = quotedbl;
kernLeft = quotesingle;
kernRight = quotesingle;
lastChange = "2025-11-14 09:03:11 +0000";
layers = (
{
layerId = "39DC058D-615C-44EE-9158-2D05AB2D1C50";
shapes = (
{
closed = 1;
nodes = (
(307,407,l),
(326,700,l),
(181,700,l),
(200,407,l)
);
},
{
closed = 1;
nodes = (
(144,407,l),
(163,700,l),
(18,700,l),
(37,407,l)
);
}
);
width = 344;
}
);
unicode = 34;
},
{
glyphname = quotesingle;
kernLeft = quotesingle;
kernRight = quotesingle;
lastChange = "2025-11-14 09:03:11 +0000";
layers = (
{
layerId = "39DC058D-615C-44EE-9158-2D05AB2D1C50";
shapes = (
{
closed = 1;
nodes = (
(144,407,l),
(163,700,l),
(18,700,l),
(37,407,l)
);
}
);
width = 181;
}
);
unicode = 39;
},
{
glyphname = at;
lastChange = "2025-11-14 09:03:11 +0000";
layers = (
{
layerId = "39DC058D-615C-44EE-9158-2D05AB2D1C50";
shapes = (
{
closed = 1;
nodes = (
(460,-48,o),
(536,-32,o),
(606,17,c),
(551,91,l),
(499,57,o),
(445,45,o),
(392,45,cs),
(235,45,o),
(123,152,o),
(123,319,cs),
(123,492,o),
(242,624,o),
(425,624,cs),
(569,624,o),
(684,540,o),
(684,391,cs),
(684,288,o),
(629,239,o),
(597,239,cs),
(581,239,o),
(572,250,o),
(576,270,cs),
(625,502,l),
(500,502,l),
(451,270,ls),
(434,190,o),
(480,139,o),
(560,139,cs),
(677,139,o),
(778,248,o),
(778,398,cs),
(778,579,o),
(638,716,o),
(425,716,cs),
(193,716,o),
(19,546,o),
(19,319,cs),
(19,98,o),
(172,-48,o),
(388,-48,cs)
);
},
{
closed = 1;
nodes = (
(478,139,o),
(522,270,o),
(522,367,cs),
(522,462,o),
(479,534,o),
(380,534,cs),
(257,534,o),
(197,421,o),
(197,318,cs),
(197,212,o),
(260,139,o),
(353,139,cs)
);
},
{
closed = 1;
nodes = (
(360,262,o),
(333,291,o),
(333,328,cs),
(333,370,o),
(363,403,o),
(402,403,cs),
(436,403,o),
(463,376,o),
(463,341,cs),
(463,297,o),
(433,262,o),
(394,262,cs)
);
}
);
width = 789;
}
);
unicode = 64;
},
{
glyphname = ampersand;
lastChange = "2025-11-14 09:03:11 +0000";
layers = (
{
layerId = "39DC058D-615C-44EE-9158-2D05AB2D1C50";
shapes = (
{
closed = 1;
nodes = (
(405,0,l),
(198,568,l),
(301,568,l),
(306,700,l),
(52,700,l),
(52,600,l),
(270,0,l)
);
},
{
closed = 1;
nodes = (
(206,-16,o),
(250,14,o),
(286,97,c),
(226,184,l),
(210,146,o),
(196,122,o),
(177,122,cs),
(153,122,o),
(136,163,o),
(136,218,cs),
(136,276,o),
(155,298,o),
(169,297,c),
(159,400,l),
(80,400,o),
(11,327,o),
(11,196,cs),
(11,72,o),
(76,-16,o),
(158,-16,cs)
);
},
{
closed = 1;
nodes = (
(367,190,o),
(393,295,o),
(405,427,c),
(298,427,l),
(288,314,o),
(275,264,o),
(257,223,c),
(307,117,l)
);
}
);
width = 416;
}
);
unicode = 38;
},
{
glyphname = copyright;
lastChange = "2025-11-14 09:03:11 +0000";
layers = (
{
layerId = "39DC058D-615C-44EE-9158-2D05AB2D1C50";
shapes = (
{
closed = 1;
nodes = (
(669,-15,o),
(830,130,o),
(830,351,cs),
(830,571,o),
(669,716,o),
(422,716,cs),
(175,716,o),
(14,571,o),
(14,351,cs),
(14,130,o),
(175,-15,o),
(422,-15,cs)
);
},
{
closed = 1;
nodes = (
(252,89,o),
(139,194,o),
(139,351,cs),
(139,507,o),
(252,612,o),
(422,612,cs),
(592,612,o),
(705,507,o),
(705,351,cs),
(705,194,o),
(592,89,o),
(422,89,cs)
);
},
{
closed = 1;
nodes = (
(543,147,o),
(633,207,o),
(646,298,c),
(491,329,l),
(488,298,o),
(463,274,o),
(428,274,cs),
(392,274,o),
(364,300,o),
(364,334,cs),
(364,366,ls),
(364,400,o),
(392,426,o),
(428,426,cs),
(463,426,o),
(488,402,o),
(491,371,c),
(646,402,l),
(633,493,o),
(543,553,o),
(428,553,cs),
(294,553,o),
(199,477,o),
(199,366,cs),
(199,334,ls),
(199,223,o),
(294,147,o),
(428,147,cs)
);
}
);
width = 844;
}
);
unicode = 169;
},
{
glyphname = registered;
lastChange = "2025-11-14 09:03:11 +0000";
layers = (
{
layerId = "39DC058D-615C-44EE-9158-2D05AB2D1C50";
shapes = (
{
closed = 1;
nodes = (
(417,264,o),
(517,353,o),
(517,490,cs),
(517,626,o),
(417,716,o),
(264,716,cs),
(112,716,o),
(12,626,o),
(12,490,cs),
(12,353,o),
(112,264,o),
(264,264,cs)
);
},
{
closed = 1;
nodes = (
(159,328,o),
(89,393,o),
(89,490,cs),
(89,587,o),
(159,652,o),
(264,652,cs),
(370,652,o),
(439,587,o),
(439,490,cs),
(439,393,o),
(370,328,o),
(264,328,cs)
);
},
{
closed = 1;
nodes = (
(248,380,l),
(248,599,l),
(159,599,l),
(159,380,l)
);
},
{
closed = 1;
nodes = (
(383,380,l),
(330,471,l),
(245,460,l),
(280,380,l)
);
},
{
closed = 1;
nodes = (
(314,452,ls),
(356,452,o),
(383,480,o),
(383,525,cs),
(383,571,o),
(356,599,o),
(314,599,cs),
(193,599,l),
(193,533,l),
(277,533,ls),
(285,533,o),
(290,527,o),
(290,519,cs),
(290,511,o),
(285,505,o),
(277,505,cs),
(230,505,l),
(230,452,l)
);
}
);
width = 530;
}
);
unicode = 174;
},
{
glyphname = trademark;
lastChange = "2025-11-14 09:03:11 +0000";
layers = (
{
layerId = "39DC058D-615C-44EE-9158-2D05AB2D1C50";
shapes = (
{
closed = 1;
nodes = (
(553,331,l),
(553,548,l),
(546,546,l),
(621,331,l),
(730,331,l),
(807,546,l),
(798,548,l),
(798,331,l),
(941,331,l),
(941,700,l),
(738,700,l),
(646,445,l),
(706,445,l),
(615,700,l),
(411,700,l),
(411,331,l)
);
},
{
closed = 1;
nodes = (
(270,331,l),
(270,700,l),
(123,700,l),
(123,331,l)
);
},
{
closed = 1;
nodes = (
(378,578,l),
(378,700,l),
(14,700,l),
(14,578,l)
);
}
);
width = 974;
}
);
unicode = 8482;
},
{
glyphname = degree;
lastChange = "2025-11-14 09:03:11 +0000";
layers = (
{
layerId = "39DC058D-615C-44EE-9158-2D05AB2D1C50";
shapes = (
{
closed = 1;
nodes = (
(345,343,o),
(432,414,o),
(432,514,cs),
(432,545,ls),
(432,645,o),
(345,716,o),
(222,716,cs),
(100,716,o),
(13,645,o),
(13,545,cs),
(13,514,ls),
(13,414,o),
(100,343,o),
(222,343,cs)
);
},
{
closed = 1;
nodes = (
(191,465,o),
(167,487,o),
(167,515,cs),
(167,544,ls),
(167,572,o),
(191,594,o),
(222,594,cs),
(254,594,o),
(278,572,o),
(278,544,cs),
(278,515,ls),
(278,487,o),
(254,465,o),
(222,465,cs)
);
}
);
width = 445;
}
);
unicode = 176;
},
{
glyphname = bar;
lastChange = "2025-11-14 09:03:11 +0000";
layers = (
{
layerId = "39DC058D-615C-44EE-9158-2D05AB2D1C50";
shapes = (
{
closed = 1;
nodes = (
(249,-115,l),
(249,780,l),
(39,780,l),
(39,-115,l)
);
}
);
width = 288;
}
);
unicode = 124;
},
{
glyphname = dollar;
lastChange = "2025-11-14 09:03:11 +0000";
layers = (
{
layerId = "39DC058D-615C-44EE-9158-2D05AB2D1C50";
shapes = (
{
closed = 1;
nodes = (
(614,0,o),
(748,95,o),
(748,245,cs),
(748,543,o),
(281,397,o),
(281,491,cs),
(281,514,o),
(311,527,o),
(358,527,cs),
(411,527,o),
(479,510,o),
(504,468,c),
(739,533,l),
(684,636,o),
(537,700,o),
(357,700,cs),
(152,700,o),
(23,610,o),
(23,467,cs),
(23,170,o),
(490,307,o),
(490,210,cs),
(490,186,o),
(463,173,o),
(406,173,cs),
(334,173,o),
(272,197,o),
(240,250,c),
(10,186,l),
(61,72,o),
(211,0,o),
(399,0,cs)
);
},
{
closed = 1;
nodes = (
(467,-100,l),
(467,41,l),
(271,41,l),
(271,-100,l)
);
},
{
closed = 1;
nodes = (
(467,659,l),
(467,800,l),
(271,800,l),
(271,659,l)
);
}
);
width = 763;
}
);
unicode = 36;
},
{
glyphname = euro;
lastChange = "2025-11-14 09:03:11 +0000";
layers = (
{
layerId = "39DC058D-615C-44EE-9158-2D05AB2D1C50";
shapes = (
{
closed = 1;
nodes = (
(661,-16,o),
(819,93,o),
(840,256,c),
(579,312,l),
(570,251,o),
(523,204,o),
(460,204,cs),
(398,204,o),
(353,251,o),
(353,310,cs),
(353,390,ls),
(353,449,o),
(398,496,o),
(460,496,cs),
(523,496,o),
(570,449,o),
(579,388,c),
(840,444,l),
(819,607,o),
(661,716,o),
(464,716,cs),
(240,716,o),
(86,577,o),
(86,380,cs),
(86,320,ls),
(86,123,o),
(240,-16,o),
(464,-16,cs)
);
},
{
closed = 1;
nodes = (
(479,255,l),
(479,335,l),
(16,335,l),
(16,255,l)
);
},
{
closed = 1;
nodes = (
(479,365,l),
(479,445,l),
(16,445,l),
(16,365,l)
);
}
);
width = 853;
}
);
unicode = 8364;
},
{
glyphname = sterling;
lastChange = "2025-11-14 09:03:11 +0000";
layers = (
{
background = {
guides = (
{
angle = 90;
pos = (434,122);
}
);
shapes = (
{
closed = 1;
nodes = (
(715,654,o),
(596,716,o),
(449,716,cs),
(284,716,o),
(173,637,o),
(150,480,cs),
(128,327,o),
(92,173,o),
(40,20,c),
(40,0,l),
(303,0,l),
(355,157,o),
(391,313,o),
(410,460,cs),
(416,507,o),
(430,519,o),
(458,519,cs),
(493,519,o),
(508,487,o),
(518,430,c),
(472,457,l),
(782,551,l),
(748,526,l)
);
},
{
closed = 1;
nodes = (
(604,289,l),
(604,405,l),
(10,405,l),
(10,289,l)
);
},
{
closed = 1;
nodes = (
(709,0,l),
(719,202,l),
(248,202,l),
(248,0,l)
);
}
);
};
guides = (
{
angle = 26.5651;
pos = (436,122);
}
);
layerId = "39DC058D-615C-44EE-9158-2D05AB2D1C50";
shapes = (
{
closed = 1;
nodes = (
(305,0,l),
(357,157,o),
(393,313,o),
(412,460,cs),
(418,507,o),
(432,519,o),
(460,519,cs),
(486.141,519,o),
(501.125,501.15,o),
(511.202,468.281,c),
(746.108,539.51,l),
(708.403,658.38,o),
(592.713,716,o),
(451,716,cs),
(286,716,o),
(175,637,o),
(152,480,cs),
(130,327,o),
(94,173,o),
(42,20,c),
(42,0,l)
);
},
{
closed = 1;
nodes = (
(606,289,l),
(606,405,l),
(12,405,l),
(12,289,l)
);
},
{
closed = 1;
nodes = (
(711,0,l),
(721,202,l),
(250,202,l),
(250,0,l)
);
}
);
width = 753;
}
);
unicode = 163;
},
{
glyphname = plus;
lastChange = "2025-11-14 09:03:11 +0000";
layers = (
{
layerId = "39DC058D-615C-44EE-9158-2D05AB2D1C50";
shapes = (
{
closed = 1;
nodes = (
(326,59,l),
(326,495,l),
(174,495,l),
(174,59,l)
);
},
{
closed = 1;
nodes = (
(468,201,l),
(468,353,l),
(32,353,l),
(32,201,l)
);
}
);
width = 500;
}
);
unicode = 43;
},
{
glyphname = minus;
lastChange = "2025-11-14 09:03:11 +0000";
layers = (
{
layerId = "39DC058D-615C-44EE-9158-2D05AB2D1C50";
shapes = (
{
closed = 1;
nodes = (
(468,201,l),
(468,353,l),
(32,353,l),
(32,201,l)
);
}
);
width = 500;
}
);
unicode = 8722;
},
{
glyphname = multiply;
lastChange = "2025-11-14 09:03:11 +0000";
layers = (
{
layerId = "39DC058D-615C-44EE-9158-2D05AB2D1C50";
shapes = (
{
closed = 1;
nodes = (
(135,55,l),
(472,392,l),
(365,499,l),
(28,162,l)
);
},
{
closed = 1;
nodes = (
(472,162,l),
(135,499,l),
(28,392,l),
(365,55,l)
);
}
);
width = 500;
}
);
unicode = 215;
},
{
glyphname = equal;
lastChange = "2025-11-14 09:03:11 +0000";
layers = (
{
layerId = "39DC058D-615C-44EE-9158-2D05AB2D1C50";
shapes = (
{
closed = 1;
nodes = (
(468,316,l),
(468,468,l),
(32,468,l),
(32,316,l)
);
},
{
closed = 1;
nodes = (
(468,96,l),
(468,248,l),
(32,248,l),
(32,96,l)
);
}
);
width = 500;
}
);
unicode = 61;
},
{
glyphname = percent;
lastChange = "2025-11-14 09:03:11 +0000";
layers = (
{
layerId = "39DC058D-615C-44EE-9158-2D05AB2D1C50";
shapes = (
{
closed = 1;
nodes = (
(330,0,l),
(730,700,l),
(566,700,l),
(166,0,l)
);
},
{
closed = 1;
nodes = (
(293,323,o),
(367,394,o),
(367,494,cs),
(367,545,ls),
(367,645,o),
(293,716,o),
(188,716,cs),
(83,716,o),
(9,645,o),
(9,545,cs),
(9,494,ls),
(9,394,o),
(83,323,o),
(188,323,cs)
);
},
{
closed = 1;
nodes = (
(162,451,o),
(145,470,o),
(145,497,cs),
(145,542,ls),
(145,569,o),
(162,588,o),
(188,588,cs),
(214,588,o),
(231,569,o),
(231,542,cs),
(231,497,ls),
(231,470,o),
(214,451,o),
(188,451,cs)
);
},
{
closed = 1;
nodes = (
(813,-16,o),
(887,55,o),
(887,155,cs),
(887,206,ls),
(887,306,o),
(813,377,o),
(708,377,cs),
(603,377,o),
(529,306,o),
(529,206,cs),
(529,155,ls),
(529,55,o),
(603,-16,o),
(708,-16,cs)
);
},
{
closed = 1;
nodes = (
(682,112,o),
(665,131,o),
(665,158,cs),
(665,203,ls),
(665,230,o),
(682,249,o),
(708,249,cs),
(734,249,o),
(751,230,o),
(751,203,cs),
(751,158,ls),
(751,131,o),
(734,112,o),
(708,112,cs)
);
}
);
width = 896;
}
);
unicode = 37;
},
{
glyphname = .notdef;
lastChange = "2025-11-14 09:03:11 +0000";
layers = (
{
layerId = "39DC058D-615C-44EE-9158-2D05AB2D1C50";
shapes = (
{
attr = {
strokePos = "1";
};
closed = 1;
nodes = (
(550,-200,l),
(550,800,l),
(50,800,l),
(50,-200,l)
);
},
{
attr = {
strokePos = "1";
};
closed = 1;
nodes = (
(140,710,l),
(460,710,l),
(460,-110,l),
(140,-110,l)
);
}
);
width = 600;
}
);
},
{
glyphname = cent;
lastChange = "2025-11-14 09:03:11 +0000";
layers = (
{
layerId = "39DC058D-615C-44EE-9158-2D05AB2D1C50";
shapes = (
{
closed = 1;
nodes = (
(489,84,o),
(604,166,o),
(627,286,c),
(391,323,l),
(383,288,o),
(363,261,o),
(327,261,cs),
(289,261,o),
(260,289,o),
(260,324,cs),
(260,376,ls),
(260,411,o),
(289,439,o),
(327,439,cs),
(363,439,o),
(383,412,o),
(391,377,c),
(627,414,l),
(604,534,o),
(489,616,o),
(327,616,cs),
(144,616,o),
(16,514,o),
(16,372,cs),
(16,328,ls),
(16,186,o),
(144,84,o),
(327,84,cs)
);
},
{
closed = 1;
nodes = (
(420,0,l),
(420,183,l),
(224,183,l),
(224,0,l)
);
},
{
closed = 1;
nodes = (
(420,517,l),
(420,700,l),
(224,700,l),
(224,517,l)
);
}
);
width = 632;
}
);
unicode = 162;
},
{
glyphname = yen;
lastChange = "2025-11-14 09:03:11 +0000";
layers = (
{
layerId = "39DC058D-615C-44EE-9158-2D05AB2D1C50";
shapes = (
{
closed = 1;
nodes = (
(538,0,l),
(538,277,l),
(808,700,l),
(493,700,l),
(396,532,l),
(305,700,l),
(-12,700,l),
(258,277,l),
(258,0,l)
);
},
{
closed = 1;
nodes = (
(730,104,l),
(730,230,l),
(66,230,l),
(66,104,l)
);
},
{
closed = 1;
nodes = (
(730,270,l),
(730,396,l),
(66,396,l),
(66,270,l)
);
}
);
width = 796;
}
);
unicode = 165;
},
{
glyphname = divide;
lastChange = "2025-11-14 09:03:11 +0000";
layers = (
{
layerId = "39DC058D-615C-44EE-9158-2D05AB2D1C50";
shapes = (
{
closed = 1;
nodes = (
(468,201,l),
(468,353,l),
(32,353,l),
(32,201,l)
);
},
{
closed = 1;
nodes = (
(331,0,l),
(331,155,l),
(168,155,l),
(168,0,l)
);
},
{
closed = 1;
nodes = (
(331,399,l),
(331,554,l),
(168,554,l),
(168,399,l)
);
}
);
width = 500;
}
);
unicode = 247;
},
{
glyphname = greater;
lastChange = "2025-11-14 09:03:11 +0000";
layers = (
{
layerId = "39DC058D-615C-44EE-9158-2D05AB2D1C50";
shapes = (
{
closed = 1;
nodes = (
(467,201,l),
(467,341,l),
(32,493,l),
(32,346,l),
(261,271,l),
(32,196,l),
(32,49,l)
);
}
);
width = 499;
}
);
unicode = 62;
},
{
glyphname = less;
lastChange = "2025-11-14 09:03:11 +0000";
layers = (
{
layerId = "39DC058D-615C-44EE-9158-2D05AB2D1C50";
shapes = (
{
closed = 1;
nodes = (
(467,196,l),
(238,271,l),
(467,346,l),
(467,493,l),
(32,341,l),
(32,201,l),
(467,49,l)
);
}
);
width = 499;
}
);
unicode = 60;
},
{
glyphname = asciitilde;
lastChange = "2025-11-14 09:03:11 +0000";
layers = (
{
layerId = "39DC058D-615C-44EE-9158-2D05AB2D1C50";
shapes = (
{
closed = 1;
nodes = (
(420,168,o),
(472,220,o),
(513,279,c),
(431,373,l),
(405,344,o),
(383,320,o),
(349,320,cs),
(297,320,o),
(262,386,o),
(180,386,cs),
(108,386,o),
(56,334,o),
(15,275,c),
(97,181,l),
(123,210,o),
(145,234,o),
(179,234,cs),
(231,234,o),
(266,168,o),
(348,168,cs)
);
}
);
width = 528;
}
);
unicode = 126;
},
{
glyphname = asciicircum;
lastChange = "2025-11-14 09:03:11 +0000";
layers = (
{
layerId = "39DC058D-615C-44EE-9158-2D05AB2D1C50";
shapes = (
{
closed = 1;
nodes = (
(189,302,l),
(261,503,l),
(333,302,l),
(492,302,l),
(334,700,l),
(188,700,l),
(30,302,l)
);
}
);
width = 522;
}
);
unicode = 94;
},
{
glyphname = grave;
lastChange = "2025-11-14 09:03:11 +0000";
layers = (
{
layerId = "39DC058D-615C-44EE-9158-2D05AB2D1C50";
shapes = (
{
closed = 1;
nodes = (
(312,569,l),
(243,731,l),
(50,731,l),
(164,569,l)
);
}
